<?xml version="1.0" encoding="utf-8"?>
<!-- Generator: Adobe Illustrator 23.0.6, SVG Export Plug-In . SVG Version: 6.00 Build 0)  -->
<svg version="1.1" id="레이어_1" xmlns="http://www.w3.org/2000/svg" xmlns:xlink="http://www.w3.org/1999/xlink" x="0px"
	 y="0px" viewBox="0 0 200 55.64" style="enable-background:new 0 0 200 55.64;" xml:space="preserve">
<style type="text/css">
	.st0{fill:url(#SVGID_1_);}
	.st1{fill:url(#SVGID_2_);}
	.st2{fill:url(#SVGID_3_);}
	.st3{fill:#343A40;}
</style>
<g>
	<g>
		<linearGradient id="SVGID_1_" gradientUnits="userSpaceOnUse" x1="29.967" y1="-1.2523" x2="29.967" y2="17.7627">
			<stop  offset="0" style="stop-color:#EFEFEF"/>
			<stop  offset="0.8437" style="stop-color:#B5B5B6"/>
		</linearGradient>
		<path class="st0" d="M16.36,16.38c-0.01-0.15-0.01-0.29-0.01-0.44c0-5.63,4.58-10.21,10.21-10.21h6.81
			c5.63,0,10.21,4.58,10.21,10.21c0,0.15,0,0.29-0.01,0.44h5.19c0-0.15,0.01-0.29,0.01-0.44c0-8.49-6.91-15.4-15.4-15.4h-6.81
			c-8.49,0-15.4,6.91-15.4,15.4c0,0.15,0.01,0.29,0.01,0.44H16.36z"/>
		<linearGradient id="SVGID_2_" gradientUnits="userSpaceOnUse" x1="-3.036837e-03" y1="36.4784" x2="51.5194" y2="36.4784">
			<stop  offset="0" style="stop-color:#00BBE8"/>
			<stop  offset="1" style="stop-color:#005DF3"/>
		</linearGradient>
		<path class="st1" d="M28.03,31.29c0-2.73,0.74-5.29,2.03-7.5l-3.22-2.76c-2.38-1.9-5.41-3.04-8.7-3.04H6.58H5.88H0.56
			c-0.5,0-0.75,0.61-0.39,0.96l4.12,4.02v6.67c0,6.74,2.69,13.09,7.57,17.88c4.87,4.78,11.32,7.42,18.15,7.42
			c6.84,0,13.28-2.63,18.15-7.42c1.27-1.25,2.39-2.61,3.36-4.06c-2.43,1.71-5.38,2.72-8.57,2.72C34.72,46.2,28.03,39.51,28.03,31.29
			z M17.13,30.37c-0.9,0-1.62-0.73-1.62-1.62s0.73-1.62,1.62-1.62s1.62,0.73,1.62,1.62S18.03,30.37,17.13,30.37z"/>
		<linearGradient id="SVGID_3_" gradientUnits="userSpaceOnUse" x1="29.6556" y1="31.2915" x2="59.9925" y2="31.2915">
			<stop  offset="0" style="stop-color:#00BBE8"/>
			<stop  offset="1" style="stop-color:#005DF3"/>
		</linearGradient>
		<path class="st2" d="M59.43,18h-5.93H53.3h-0.31c-0.01,0-0.01,0-0.01,0H42.65c-0.1,0-0.2,0.01-0.3,0.02
			c-7.06,0.32-12.7,6.14-12.7,13.27c0,7.34,5.96,13.29,13.3,13.29c4.53,0,8.53-2.27,10.93-5.73H43.31c-0.54,0-0.97-0.44-0.97-0.97
			c0-0.48,0.34-0.87,0.79-0.95c0.07-0.02,0.15-0.03,0.22-0.03h11.41c0.27-0.86,0.5-1.74,0.69-2.63H43.31
			c-0.54,0-0.97-0.44-0.97-0.97c0-0.54,0.44-0.97,0.97-0.97h12.45c0.11-0.87,0.18-1.75,0.2-2.64H43.31c-0.54,0-0.97-0.44-0.97-0.97
			s0.44-0.97,0.97-0.97h12.63l0.29-5.4l3.59-3.35C60.18,18.62,59.94,18,59.43,18z"/>
	</g>
	<g>
		<path class="st3" d="M101.28,22.09c-0.93-1.16-2.1-2.08-3.51-2.74c-1.41-0.67-3.06-1-4.95-1c-1.55,0-2.99,0.3-4.33,0.91
			c-1.33,0.6-2.37,1.6-3.12,3h-0.09v-1.44c0-1-0.81-1.81-1.81-1.81h-1.4c-1,0-1.81,0.81-1.81,1.81v29.31c0,1,0.81,1.81,1.81,1.81
			h1.68c1,0,1.81-0.81,1.81-1.81V39.93h0.09c0.4,0.65,0.91,1.22,1.51,1.7c0.6,0.48,1.26,0.88,1.98,1.19
			c0.71,0.31,1.46,0.54,2.23,0.67c0.77,0.14,1.55,0.21,2.33,0.21c1.77,0,3.3-0.35,4.61-1.05s2.38-1.63,3.23-2.79
			c0.85-1.16,1.49-2.5,1.91-4.02c0.42-1.52,0.63-3.09,0.63-4.7c0-1.77-0.23-3.43-0.7-4.98C102.91,24.61,102.21,23.25,101.28,22.09z
			 M98.42,34.13c-0.23,1.01-0.62,1.91-1.16,2.7c-0.54,0.79-1.23,1.43-2.07,1.93c-0.84,0.5-1.86,0.74-3.07,0.74
			c-1.09,0-2.04-0.22-2.86-0.65c-0.82-0.43-1.53-1.02-2.12-1.77c-0.59-0.74-1.03-1.64-1.33-2.67c-0.3-1.04-0.44-2.16-0.44-3.37
			c0-2.57,0.57-4.64,1.7-6.19c1.13-1.55,2.81-2.33,5.05-2.33c1.08,0,2.05,0.24,2.88,0.72c0.84,0.48,1.54,1.12,2.09,1.91
			c0.56,0.79,0.98,1.7,1.26,2.72c0.28,1.02,0.42,2.08,0.42,3.16C98.77,32.1,98.66,33.13,98.42,34.13z"/>
		<path class="st3" d="M109.84,9.83h-1.68c-1,0-1.81,0.81-1.81,1.81v29.59c0,1,0.81,1.81,1.81,1.81h1.68c1,0,1.81-0.81,1.81-1.81
			V11.64C111.66,10.64,110.85,9.83,109.84,9.83z"/>
		<path class="st3" d="M135.08,21.92c-1.04-1.12-2.31-1.99-3.81-2.63c-1.5-0.64-3.22-0.95-5.14-0.95c-1.92,0-3.64,0.32-5.14,0.95
			c-1.5,0.64-2.78,1.51-3.81,2.63c-1.04,1.12-1.83,2.45-2.37,4c-0.54,1.55-0.81,3.24-0.81,5.07c0,1.86,0.27,3.57,0.81,5.12
			c0.54,1.55,1.33,2.88,2.37,4c1.04,1.12,2.31,1.99,3.81,2.63c1.5,0.64,3.22,0.95,5.14,0.95c1.92,0,3.64-0.32,5.14-0.95
			c1.5-0.64,2.77-1.51,3.81-2.63c1.04-1.12,1.83-2.45,2.37-4c0.54-1.55,0.81-3.26,0.81-5.12c0-1.83-0.27-3.52-0.81-5.07
			C136.91,24.37,136.12,23.04,135.08,21.92z M132.57,34.09c-0.26,1.01-0.67,1.92-1.23,2.72c-0.56,0.81-1.27,1.46-2.14,1.95
			c-0.87,0.5-1.89,0.74-3.07,0.74c-1.18,0-2.2-0.25-3.07-0.74c-0.87-0.5-1.58-1.15-2.14-1.95c-0.56-0.81-0.97-1.71-1.23-2.72
			c-0.26-1.01-0.4-2.04-0.4-3.09c0-1.02,0.13-2.05,0.4-3.07c0.26-1.02,0.67-1.93,1.23-2.72c0.56-0.79,1.27-1.43,2.14-1.93
			c0.87-0.5,1.89-0.74,3.07-0.74c1.18,0,2.2,0.25,3.07,0.74c0.87,0.5,1.58,1.14,2.14,1.93c0.56,0.79,0.97,1.7,1.23,2.72
			c0.26,1.02,0.4,2.05,0.4,3.07C132.96,32.05,132.83,33.08,132.57,34.09z"/>
		<path class="st3" d="M158.72,18.99h-1.59c-0.79,0-1.49,0.51-1.73,1.26l-5.46,17.2h-0.09l-5.68-17.22
			c-0.25-0.74-0.94-1.24-1.72-1.24h-1.87c-1.26,0-2.13,1.25-1.7,2.43l7.43,20.42c0.26,0.72,0.94,1.19,1.7,1.19h3.41
			c0.77,0,1.45-0.48,1.71-1.2l7.31-20.42C160.85,20.24,159.97,18.99,158.72,18.99z"/>
		<path class="st3" d="M181.48,22.67c-0.99-1.3-2.24-2.35-3.74-3.14c-1.5-0.79-3.2-1.19-5.09-1.19c-1.8,0-3.41,0.34-4.84,1.02
			c-1.43,0.68-2.64,1.6-3.65,2.77c-1.01,1.16-1.78,2.51-2.33,4.05c-0.54,1.54-0.81,3.16-0.81,4.86c0,1.86,0.26,3.57,0.77,5.12
			c0.51,1.55,1.27,2.88,2.28,4s2.24,1.99,3.7,2.61c1.46,0.62,3.13,0.93,5.02,0.93c1.3,0,2.55-0.18,3.74-0.53
			c1.19-0.36,2.27-0.88,3.23-1.58c0.96-0.7,1.78-1.56,2.47-2.58c0.18-0.27,0.35-0.56,0.5-0.85c0.63-1.2-0.27-2.64-1.62-2.64h-1.27
			c-0.7,0-1.31,0.41-1.64,1.03c-0.43,0.83-0.99,1.49-1.67,1.97c-0.95,0.67-2.19,1-3.74,1c-1.12,0-2.08-0.19-2.88-0.58
			s-1.47-0.91-2-1.56c-0.53-0.65-0.92-1.41-1.19-2.28c-0.04-0.14-0.08-0.28-0.12-0.42c-0.29-1.15,0.57-2.28,1.76-2.28h13.93
			c0.98,0,1.81-0.78,1.81-1.76c0-1.18-0.15-2.34-0.45-3.47C183.19,25.47,182.47,23.97,181.48,22.67z M176.44,28.9h-7.92
			c-1.26,0-2.18-1.27-1.71-2.44c0.01-0.03,0.02-0.05,0.03-0.08c0.33-0.77,0.76-1.45,1.3-2.02c0.54-0.57,1.19-1.02,1.95-1.35
			c0.76-0.33,1.6-0.49,2.53-0.49c0.9,0,1.71,0.18,2.44,0.53c0.73,0.36,1.35,0.82,1.86,1.4c0.51,0.57,0.91,1.25,1.21,2.02
			c0,0.01,0.01,0.02,0.01,0.02C178.6,27.67,177.69,28.9,176.44,28.9z"/>
		<path class="st3" d="M199.81,18.48L199.81,18.48C199.81,18.48,199.8,18.48,199.81,18.48c-0.01,0-0.01,0-0.01,0v0
			c-0.07-0.01-0.49-0.06-0.71-0.09c-0.23-0.03-0.66-0.05-1.28-0.05c-0.81,0-1.6,0.16-2.37,0.47c-0.78,0.31-1.48,0.72-2.12,1.23
			c-0.64,0.51-1.18,1.08-1.63,1.7c-0.45,0.62-0.75,1.26-0.91,1.91h-0.09v-2.84c0-1-0.81-1.81-1.81-1.81h-1.35
			c-1,0-1.81,0.81-1.81,1.81v20.42c0,1,0.81,1.81,1.81,1.81h1.68c1,0,1.81-0.81,1.81-1.81V31.6c0-1.33,0.17-2.51,0.51-3.54
			c0.34-1.02,0.81-1.88,1.4-2.58c0.59-0.7,1.28-1.22,2.07-1.58c0.79-0.36,1.64-0.53,2.53-0.53c0.37,0,0.75,0.02,1.14,0.07
			c0.39,0.05,1.14,0.16,1.14,0.16c0.1,0.02,0.19-0.05,0.19-0.07s0-4.72,0-4.87C200,18.51,199.84,18.48,199.81,18.48z"/>
	</g>
</g>
</svg>
