<?xml version="1.0" encoding="utf-8"?>
<!-- Generator: Adobe Illustrator 23.0.6, SVG Export Plug-In . SVG Version: 6.00 Build 0)  -->
<svg version="1.1" id="레이어_1" xmlns="http://www.w3.org/2000/svg" xmlns:xlink="http://www.w3.org/1999/xlink" x="0px"
	 y="0px" viewBox="0 0 512 512" style="enable-background:new 0 0 512 512;" xml:space="preserve">
<style type="text/css">
	.st0{fill:url(#SVGID_1_);}
	.st1{fill:url(#SVGID_2_);}
	.st2{fill:url(#SVGID_3_);}
</style>
<g>
	<g>
		<linearGradient id="SVGID_1_" gradientUnits="userSpaceOnUse" x1="255.7632" y1="8.6497" x2="255.7632" y2="170.8174">
			<stop  offset="0" style="stop-color:#EFEFEF"/>
			<stop  offset="0.8437" style="stop-color:#B5B5B6"/>
		</linearGradient>
		<path class="st0" d="M139.76,159.04c-0.05-1.24-0.09-2.48-0.09-3.73c0-48.01,39.06-87.08,87.08-87.08h58.05
			c48.01,0,87.08,39.06,87.08,87.08c0,1.25-0.04,2.49-0.09,3.73H416c0.03-1.24,0.09-2.48,0.09-3.73C416.09,82.9,357.19,24,284.79,24
			h-58.05c-72.4,0-131.31,58.9-131.31,131.31c0,1.25,0.06,2.49,0.09,3.73H139.76z"/>
		<linearGradient id="SVGID_2_" gradientUnits="userSpaceOnUse" x1="0.167" y1="330.4324" x2="439.5714" y2="330.4324">
			<stop  offset="0" style="stop-color:#00BBE8"/>
			<stop  offset="1" style="stop-color:#005DF3"/>
		</linearGradient>
		<path class="st1" d="M239.29,286.2c0-23.3,6.33-45.13,17.31-63.93l-27.47-23.51c-20.3-16.19-46.14-25.9-74.23-25.9H56.32h-6.02
			H4.94c-4.29,0-6.4,5.24-3.31,8.23l35.13,34.25v56.89c0,57.46,22.92,111.62,64.53,152.49c41.53,40.8,96.52,63.27,154.83,63.27
			c58.31,0,113.3-22.47,154.83-63.27c10.87-10.67,20.38-22.29,28.62-34.6c-20.7,14.61-45.92,23.23-73.13,23.23
			C296.33,413.36,239.29,356.31,239.29,286.2z M146.32,278.32c-7.63,0-13.82-6.19-13.82-13.82s6.19-13.82,13.82-13.82
			c7.63,0,13.82,6.19,13.82,13.82S153.96,278.32,146.32,278.32z"/>
		<linearGradient id="SVGID_3_" gradientUnits="userSpaceOnUse" x1="253.1081" y1="286.1965" x2="511.833" y2="286.1965">
			<stop  offset="0" style="stop-color:#00BBE8"/>
			<stop  offset="1" style="stop-color:#005DF3"/>
		</linearGradient>
		<path class="st2" d="M507.06,172.86h-50.55h-1.78h-2.66c-0.04,0-0.08-0.01-0.13-0.01h-87.97c-0.87,0-1.73,0.05-2.59,0.13
			c-60.25,2.7-108.28,52.34-108.28,113.21c0,62.59,50.79,113.34,113.44,113.34c38.67,0,72.77-19.37,93.25-48.89h-90.24
			c-4.58,0-8.29-3.71-8.29-8.29c0-4.05,2.91-7.41,6.75-8.14c0.61-0.15,1.25-0.24,1.91-0.24h97.33c2.32-7.33,4.3-14.82,5.86-22.46
			H369.55c-4.58,0-8.29-3.71-8.29-8.29c0-4.58,3.71-8.29,8.29-8.29h106.21c0.93-7.41,1.49-14.93,1.67-22.54H369.55
			c-4.58,0-8.29-3.71-8.29-8.29s3.71-8.29,8.29-8.29h107.73l2.44-46.09l30.64-28.61C513.45,178.1,511.35,172.86,507.06,172.86z"/>
	</g>
</g>
</svg>
