<?xml version="1.0" encoding="utf-8"?>
<!-- Generator: Adobe Illustrator 23.0.6, SVG Export Plug-In . SVG Version: 6.00 Build 0)  -->
<svg version="1.1" id="레이어_1" xmlns="http://www.w3.org/2000/svg" xmlns:xlink="http://www.w3.org/1999/xlink" x="0px"
	 y="0px" viewBox="0 0 512 512" style="enable-background:new 0 0 512 512;" xml:space="preserve">
<style type="text/css">
	.st0{fill:url(#SVGID_1_);}
	.st1{fill:url(#SVGID_2_);}
	.st2{fill:url(#SVGID_3_);}
	.st3{fill:#FFFFFF;}
</style>
<g>
	<g>
		<linearGradient id="SVGID_1_" gradientUnits="userSpaceOnUse" x1="252.725" y1="-8.9448" x2="252.725" y2="85.5523">
			<stop  offset="0" style="stop-color:#EFEFEF"/>
			<stop  offset="0.8437" style="stop-color:#B5B5B6"/>
		</linearGradient>
		<path class="st0" d="M185.13,78.69c-0.03-0.72-0.06-1.44-0.06-2.17c0-27.98,22.76-50.74,50.74-50.74h33.83
			c27.98,0,50.74,22.76,50.74,50.74c0,0.73-0.02,1.45-0.06,2.17h25.77c0.02-0.72,0.06-1.44,0.06-2.17
			C346.15,34.32,311.83,0,269.64,0h-33.83c-42.19,0-76.51,34.32-76.51,76.51c0,0.73,0.03,1.45,0.06,2.17H185.13z"/>
		<linearGradient id="SVGID_2_" gradientUnits="userSpaceOnUse" x1="103.7861" y1="178.5618" x2="359.8322" y2="178.5618">
			<stop  offset="0" style="stop-color:#00BBE8"/>
			<stop  offset="1" style="stop-color:#005DF3"/>
		</linearGradient>
		<path class="st1" d="M243.12,152.79c0-13.57,3.69-26.3,10.09-37.25l-16-13.7c-11.83-9.43-26.88-15.09-43.25-15.09h-57.44H133
			h-26.43c-2.5,0-3.73,3.05-1.93,4.79l20.47,19.96v33.15c0,33.48,13.35,65.04,37.6,88.86c24.2,23.77,56.24,36.87,90.22,36.87
			c33.98,0,66.02-13.09,90.22-36.87c6.33-6.22,11.88-12.99,16.67-20.16c-12.06,8.51-26.76,13.53-42.61,13.53
			C276.36,226.88,243.12,193.64,243.12,152.79z M188.95,148.2c-4.45,0-8.05-3.61-8.05-8.05c0-4.45,3.61-8.05,8.05-8.05
			c4.45,0,8.05,3.61,8.05,8.05C197.01,144.59,193.4,148.2,188.95,148.2z"/>
		<linearGradient id="SVGID_3_" gradientUnits="userSpaceOnUse" x1="251.1779" y1="152.785" x2="401.9399" y2="152.785">
			<stop  offset="0" style="stop-color:#00BBE8"/>
			<stop  offset="1" style="stop-color:#005DF3"/>
		</linearGradient>
		<path class="st2" d="M399.16,86.75H369.7h-1.04h-1.55c-0.02,0-0.05,0-0.07,0h-51.26c-0.51,0-1.01,0.03-1.51,0.08
			c-35.11,1.57-63.09,30.5-63.09,65.97c0,36.47,29.59,66.04,66.1,66.04c22.53,0,42.41-11.29,54.34-28.49h-52.59
			c-2.67,0-4.83-2.16-4.83-4.83c0-2.36,1.69-4.32,3.93-4.74c0.36-0.08,0.73-0.14,1.11-0.14h56.71c1.35-4.27,2.5-8.64,3.41-13.09
			h-60.34c-2.67,0-4.83-2.16-4.83-4.83s2.16-4.83,4.83-4.83h61.89c0.54-4.32,0.87-8.7,0.97-13.14h-62.86
			c-2.67,0-4.83-2.16-4.83-4.83s2.16-4.83,4.83-4.83h62.77l1.42-26.86l17.86-16.67C402.88,89.8,401.66,86.75,399.16,86.75z"/>
	</g>
	<g>
		<path class="st3" d="M98.83,391.26c-3.76-4.71-8.5-8.41-14.21-11.11c-5.71-2.7-12.39-4.05-20.05-4.05
			c-6.28,0-12.11,1.22-17.5,3.67c-5.4,2.45-9.6,6.49-12.61,12.14h-0.38v-5.84c0-4.05-3.28-7.34-7.34-7.34h-5.65
			c-4.05,0-7.34,3.28-7.34,7.34v118.59c0,4.05,3.28,7.34,7.34,7.34h6.79c4.05,0,7.34-3.28,7.34-7.34v-41.22h0.38
			c1.63,2.63,3.67,4.93,6.12,6.87c2.45,1.95,5.11,3.55,8,4.8c2.88,1.25,5.9,2.17,9.03,2.73c3.13,0.56,6.27,0.85,9.41,0.85
			c7.15,0,13.36-1.41,18.63-4.23c5.27-2.82,9.63-6.59,13.08-11.29c3.45-4.71,6.02-10.13,7.72-16.28c1.69-6.15,2.54-12.48,2.54-19.01
			c0-7.15-0.94-13.87-2.82-20.14C105.41,401.45,102.59,395.96,98.83,391.26z M87.25,440.01c-0.94,4.08-2.51,7.72-4.71,10.92
			c-2.2,3.2-4.99,5.81-8.38,7.81c-3.39,2.01-7.53,3.01-12.42,3.01c-4.39,0-8.25-0.88-11.58-2.63c-3.33-1.76-6.18-4.14-8.56-7.15
			c-2.38-3.01-4.17-6.62-5.36-10.82c-1.19-4.2-1.79-8.75-1.79-13.64c0-10.42,2.29-18.76,6.87-25.03c4.58-6.27,11.39-9.41,20.42-9.41
			c4.39,0,8.28,0.97,11.67,2.92c3.39,1.95,6.21,4.52,8.47,7.72c2.26,3.2,3.95,6.87,5.08,11.01c1.13,4.14,1.69,8.41,1.69,12.8
			C88.66,431.76,88.19,435.93,87.25,440.01z"/>
		<path class="st3" d="M133.46,341.66h-6.79c-4.05,0-7.34,3.28-7.34,7.34v119.72c0,4.05,3.28,7.34,7.34,7.34h6.79
			c4.05,0,7.34-3.28,7.34-7.34V349C140.8,344.95,137.51,341.66,133.46,341.66z"/>
		<path class="st3" d="M235.56,390.6c-4.21-4.52-9.35-8.06-15.43-10.63c-6.09-2.57-13.02-3.86-20.8-3.86
			c-7.78,0-14.71,1.29-20.8,3.86c-6.09,2.57-11.23,6.12-15.43,10.63c-4.21,4.52-7.41,9.91-9.6,16.19
			c-2.2,6.28-3.29,13.11-3.29,20.52c0,7.53,1.1,14.43,3.29,20.71c2.19,6.27,5.39,11.67,9.6,16.19c4.2,4.52,9.35,8.06,15.43,10.63
			c6.09,2.57,13.02,3.86,20.8,3.86c7.78,0,14.71-1.29,20.8-3.86c6.08-2.57,11.23-6.12,15.43-10.63c4.2-4.52,7.4-9.91,9.6-16.19
			c2.19-6.27,3.29-13.18,3.29-20.71c0-7.4-1.1-14.24-3.29-20.52C242.97,400.51,239.77,395.12,235.56,390.6z M225.4,439.82
			c-1.07,4.08-2.73,7.75-4.99,11.01c-2.26,3.27-5.15,5.9-8.66,7.91c-3.51,2.01-7.65,3.01-12.42,3.01c-4.77,0-8.91-1-12.42-3.01
			c-3.51-2.01-6.4-4.64-8.66-7.91c-2.26-3.26-3.92-6.93-4.99-11.01c-1.07-4.08-1.6-8.25-1.6-12.52c0-4.14,0.53-8.28,1.6-12.42
			c1.07-4.14,2.73-7.81,4.99-11.01c2.26-3.2,5.14-5.8,8.66-7.81c3.51-2.01,7.65-3.01,12.42-3.01c4.77,0,8.91,1.01,12.42,3.01
			c3.51,2.01,6.4,4.61,8.66,7.81c2.26,3.2,3.92,6.87,4.99,11.01c1.06,4.14,1.6,8.28,1.6,12.42
			C227,431.57,226.46,435.74,225.4,439.82z"/>
		<path class="st3" d="M331.21,378.74h-6.42c-3.2,0-6.03,2.07-6.99,5.12l-22.09,69.61h-0.38l-23-69.69
			c-0.99-3.01-3.8-5.04-6.97-5.04h-7.56c-5.09,0-8.63,5.06-6.9,9.84l30.05,82.64c1.05,2.9,3.81,4.83,6.9,4.83h13.79
			c3.1,0,5.86-1.95,6.91-4.86l29.57-82.64C339.82,383.77,336.28,378.74,331.21,378.74z"/>
		<path class="st3" d="M423.31,393.61c-4.02-5.27-9.07-9.51-15.15-12.71c-6.09-3.2-12.96-4.8-20.61-4.8
			c-7.28,0-13.8,1.38-19.58,4.14c-5.77,2.76-10.7,6.49-14.78,11.2c-4.08,4.71-7.21,10.16-9.41,16.38s-3.29,12.77-3.29,19.67
			c0,7.53,1.04,14.43,3.11,20.7c2.07,6.28,5.14,11.67,9.22,16.19s9.06,8.03,14.97,10.54c5.9,2.51,12.67,3.76,20.33,3.76
			c5.27,0,10.32-0.72,15.15-2.16c4.83-1.44,9.19-3.58,13.08-6.4c3.89-2.82,7.21-6.3,9.98-10.45c0.74-1.11,1.42-2.26,2.04-3.45
			c2.54-4.85-1.09-10.67-6.57-10.67h-5.14c-2.83,0-5.31,1.67-6.62,4.18c-1.75,3.36-4.01,6.01-6.77,7.96
			c-3.83,2.7-8.88,4.05-15.15,4.05c-4.52,0-8.41-0.78-11.67-2.35c-3.26-1.57-5.96-3.67-8.09-6.3c-2.14-2.64-3.73-5.71-4.8-9.22
			c-0.17-0.56-0.33-1.13-0.47-1.7c-1.18-4.67,2.3-9.21,7.12-9.21h56.37c3.97,0,7.34-3.16,7.34-7.13c-0.01-4.78-0.62-9.46-1.84-14.05
			C430.24,404.93,427.32,398.88,423.31,393.61z M402.94,418.83h-32.04c-5.1,0-8.82-5.14-6.9-9.86c0.04-0.1,0.08-0.2,0.13-0.31
			c1.32-3.14,3.07-5.87,5.27-8.19c2.19-2.32,4.83-4.14,7.91-5.46c3.07-1.32,6.49-1.98,10.26-1.98c3.64,0,6.93,0.72,9.88,2.16
			c2.95,1.44,5.46,3.33,7.53,5.65c2.07,2.32,3.7,5.05,4.9,8.19c0.01,0.03,0.02,0.06,0.04,0.09
			C411.66,413.84,407.96,418.83,402.94,418.83z"/>
		<path class="st3" d="M497.47,376.67L497.47,376.67c0,0-0.01,0-0.01,0c-0.01,0-0.05-0.01-0.05-0.01v0c-0.29-0.04-2-0.25-2.86-0.37
			c-0.94-0.12-2.67-0.19-5.18-0.19c-3.27,0-6.46,0.63-9.6,1.88c-3.14,1.25-6,2.92-8.57,4.99c-2.57,2.07-4.77,4.36-6.59,6.87
			c-1.82,2.51-3.05,5.08-3.67,7.72h-0.38v-11.49c0-4.05-3.28-7.34-7.34-7.34h-5.47c-4.05,0-7.34,3.28-7.34,7.34v82.64
			c0,4.05,3.28,7.34,7.34,7.34h6.78c4.05,0,7.34-3.28,7.34-7.34v-38.97c0-5.39,0.69-10.16,2.07-14.3c1.38-4.14,3.26-7.62,5.65-10.45
			c2.38-2.82,5.17-4.96,8.38-6.4c3.2-1.44,6.62-2.16,10.26-2.16c1.51,0,3.04,0.09,4.61,0.28c1.57,0.19,4.61,0.63,4.61,0.63
			c0.42,0.1,0.78-0.22,0.78-0.29s0-19.08,0-19.71C498.25,376.78,497.62,376.68,497.47,376.67z"/>
	</g>
</g>
</svg>
