<svg xmlns="http://www.w3.org/2000/svg" width="420" height="480" viewBox="0 0 420 480">
    <defs>
        <linearGradient id="a" x1="50.005%" x2="50.005%" y1="-11.315%" y2="108.729%">
            <stop offset="0%" stop-color="#EFEFEF"/>
            <stop offset="84.37%" stop-color="#B5B5B6"/>
        </linearGradient>
        <linearGradient id="b" x1="-.006%" x2="99.999%" y1="50.036%" y2="50.036%">
            <stop offset="0%" stop-color="#00BBE8"/>
            <stop offset="100%" stop-color="#005DF3"/>
        </linearGradient>
        <linearGradient id="c" x1=".018%" x2="100.001%" y1="50.006%" y2="50.006%">
            <stop offset="0%" stop-color="#00BBE8"/>
            <stop offset="100%" stop-color="#005DF3"/>
        </linearGradient>
    </defs>
    <g fill="none" fill-rule="evenodd">
        <path fill="#FFF" d="M0 0h420v480H0z"/>
        <g fill-rule="nonzero">
            <path fill="url(#a)" d="M14.888 14.89c-.01-.135-.01-.263-.01-.4 0-5.117 4.168-9.28 9.292-9.28h6.197c5.123 0 9.29 4.163 9.29 9.28 0 .137 0 .265-.008.4h4.723c0-.135.009-.263.009-.4 0-7.717-6.288-14-14.014-14H24.17c-7.726 0-14.014 6.283-14.014 14 0 .137.009.265.009.4h4.723z" transform="translate(119 57)"/>
            <path fill="url(#b)" d="M25.507 28.445c0-2.481.674-4.809 1.848-6.818l-2.93-2.509a12.665 12.665 0 0 0-7.918-2.763H.51a.509.509 0 0 0-.355.872l3.749 3.655v6.063c0 6.128 2.448 11.9 6.889 16.255a23.468 23.468 0 0 0 16.516 6.745c6.224 0 12.085-2.39 16.517-6.745a23.533 23.533 0 0 0 3.057-3.69 13.508 13.508 0 0 1-7.799 2.472c-7.489.018-13.577-6.064-13.577-13.537zm-9.919-.836a1.473 1.473 0 0 1-1.474-1.473c0-.809.664-1.472 1.474-1.472.81 0 1.475.663 1.475 1.472 0 .81-.656 1.473-1.475 1.473z" transform="translate(119 57)"/>
            <path fill="url(#c)" d="M54.081 16.364h-15.27c-.09 0-.181.009-.273.018-6.424.29-11.556 5.582-11.556 12.063 0 6.673 5.423 12.082 12.102 12.082a12.09 12.09 0 0 0 9.947-5.209h-9.619a.883.883 0 0 1-.883-.882c0-.436.31-.79.72-.863a.759.759 0 0 1 .2-.028h10.383c.245-.781.455-1.581.627-2.39H39.412a.883.883 0 0 1-.883-.882c0-.491.4-.882.883-.882h11.33c.1-.791.163-1.591.182-2.4H39.412a.883.883 0 0 1-.883-.882c0-.482.4-.882.883-.882h11.493l.264-4.909 3.267-3.045c.328-.346.11-.91-.355-.91z" transform="translate(119 57)"/>
            <g fill="#343A40">
                <path d="M211.165 77.082a8.838 8.838 0 0 0-3.194-2.491c-1.283-.61-2.785-.91-4.505-.91-1.41 0-2.72.274-3.94.828-1.21.546-2.157 1.455-2.84 2.727h-.081v-1.309c0-.909-.737-1.645-1.647-1.645h-1.274c-.91 0-1.647.736-1.647 1.645v26.646c0 .909.737 1.645 1.647 1.645h1.529c.91 0 1.647-.736 1.647-1.645V93.3h.081c.364.59.829 1.11 1.375 1.545.546.437 1.146.8 1.801 1.082a8.71 8.71 0 0 0 2.03.61c.7.127 1.41.19 2.12.19 1.61 0 3.003-.318 4.195-.954a8.625 8.625 0 0 0 2.94-2.537c.773-1.054 1.355-2.272 1.738-3.654a15.97 15.97 0 0 0 .573-4.273c0-1.609-.21-3.118-.637-4.527-.428-1.41-1.065-2.646-1.911-3.7zm-2.603 10.945a7.098 7.098 0 0 1-1.055 2.455 5.9 5.9 0 0 1-1.884 1.754c-.764.455-1.693.673-2.794.673-.992 0-1.856-.2-2.602-.59a5.952 5.952 0 0 1-1.93-1.61c-.536-.673-.937-1.49-1.21-2.427-.273-.946-.4-1.964-.4-3.064 0-2.336.518-4.218 1.547-5.627 1.028-1.41 2.557-2.118 4.595-2.118.983 0 1.866.218 2.621.654a5.799 5.799 0 0 1 1.902 1.737c.51.718.892 1.545 1.147 2.472.254.928.382 1.891.382 2.873 0 .973-.1 1.91-.319 2.818zM218.954 65.936h-1.528c-.91 0-1.647.737-1.647 1.646v26.9c0 .909.737 1.645 1.647 1.645h1.528c.91 0 1.648-.736 1.648-1.645v-26.9a1.634 1.634 0 0 0-1.648-1.646zM241.923 76.927c-.947-1.018-2.102-1.809-3.467-2.39-1.365-.582-2.93-.864-4.678-.864-1.747 0-3.312.29-4.677.863-1.365.582-2.53 1.373-3.467 2.391-.947 1.018-1.665 2.228-2.157 3.637-.491 1.409-.737 2.945-.737 4.609 0 1.69.246 3.245.737 4.654.492 1.41 1.21 2.618 2.157 3.637.946 1.018 2.102 1.809 3.467 2.39 1.365.582 2.93.864 4.677.864 1.748 0 3.313-.29 4.678-.863 1.365-.582 2.52-1.373 3.467-2.391.946-1.019 1.665-2.228 2.157-3.637.49-1.409.737-2.963.737-4.654 0-1.664-.246-3.2-.737-4.61-.492-1.408-1.21-2.618-2.157-3.636zm-2.284 11.064a7.56 7.56 0 0 1-1.12 2.473 5.783 5.783 0 0 1-1.947 1.772c-.792.455-1.72.673-2.794.673-1.073 0-2.002-.227-2.793-.673a5.977 5.977 0 0 1-1.948-1.772 7.646 7.646 0 0 1-1.12-2.473 11.22 11.22 0 0 1-.363-2.81c0-.926.118-1.863.364-2.79a7.392 7.392 0 0 1 1.12-2.473 6.025 6.025 0 0 1 1.947-1.754c.791-.455 1.72-.673 2.793-.673 1.074 0 2.002.227 2.794.673a6.025 6.025 0 0 1 1.947 1.754c.51.718.883 1.546 1.12 2.473.236.927.364 1.864.364 2.79-.01.955-.128 1.892-.364 2.81zM263.435 74.264h-1.447c-.719 0-1.356.463-1.574 1.145l-4.969 15.636h-.082l-5.168-15.654a1.653 1.653 0 0 0-1.566-1.127h-1.701a1.645 1.645 0 0 0-1.547 2.209l6.761 18.563a1.64 1.64 0 0 0 1.547 1.082h3.103c.7 0 1.32-.436 1.556-1.09L265 76.463c.374-1.064-.427-2.2-1.565-2.2zM284.147 77.61a10.187 10.187 0 0 0-3.404-2.855c-1.365-.719-2.912-1.082-4.632-1.082-1.638 0-3.103.309-4.404.927a9.994 9.994 0 0 0-3.321 2.518c-.92 1.055-1.62 2.282-2.12 3.682a13.243 13.243 0 0 0-.738 4.418c0 1.691.237 3.246.7 4.655.465 1.409 1.157 2.618 2.076 3.636.919 1.018 2.038 1.81 3.367 2.373 1.328.563 2.848.845 4.568.845 1.183 0 2.32-.163 3.403-.482a9.72 9.72 0 0 0 2.94-1.436 9.36 9.36 0 0 0 2.247-2.345 8.19 8.19 0 0 0 .455-.773c.574-1.091-.245-2.4-1.474-2.4h-1.156c-.637 0-1.192.373-1.492.936-.391.755-.9 1.355-1.52 1.791-.864.61-1.993.91-3.403.91-1.02 0-1.893-.173-2.62-.528a5.32 5.32 0 0 1-1.82-1.418c-.483-.591-.838-1.282-1.084-2.073l-.109-.382c-.264-1.045.519-2.072 1.602-2.072h12.676c.892 0 1.647-.71 1.647-1.6 0-1.073-.137-2.128-.41-3.155-.418-1.545-1.073-2.91-1.974-4.09zm-4.587 5.663h-7.207c-1.146 0-1.984-1.155-1.556-2.218l.027-.073c.3-.7.692-1.318 1.183-1.837a5.344 5.344 0 0 1 1.775-1.227c.691-.3 1.456-.445 2.302-.445.82 0 1.556.163 2.22.482a5.387 5.387 0 0 1 1.693 1.272 5.983 5.983 0 0 1 1.11 1.855c.419 1.073-.41 2.19-1.547 2.19zM300.827 73.8s-.009 0 0 0h-.009c-.064-.01-.446-.055-.646-.082-.21-.027-.6-.045-1.165-.045-.737 0-1.456.145-2.157.427a7.534 7.534 0 0 0-1.929 1.118 7.919 7.919 0 0 0-1.483 1.546 4.977 4.977 0 0 0-.828 1.736h-.082v-2.582c0-.909-.737-1.645-1.647-1.645h-1.229c-.91 0-1.647.736-1.647 1.645v18.564c0 .909.737 1.645 1.647 1.645h1.53c.91 0 1.646-.736 1.646-1.645v-8.755c0-1.209.155-2.282.464-3.218.31-.927.737-1.709 1.274-2.345a5.318 5.318 0 0 1 1.884-1.437 5.504 5.504 0 0 1 2.302-.482c.337 0 .683.019 1.038.064.355.046 1.037.146 1.037.146.091.018.173-.046.173-.064v-4.427c0-.137-.146-.164-.173-.164z"/>
            </g>
        </g>
        <rect width="259" height="33" x="20.5" y="426.5" stroke="#DEE2E6" rx="16.5"/>
        <text fill="#495057" font-family="SpoqaHanSans-Bold, SpoqaHanSans" font-size="12" font-weight="bold" letter-spacing="-.214">
            <tspan x="34" y="448">사용자 : </tspan>
        </text>
    </g>
</svg>
