<svg xmlns="http://www.w3.org/2000/svg" width="114" height="40" viewBox="0 0 114 40">
    <defs>
        <linearGradient id="a" x1="0%" y1="50%" y2="50%">
            <stop offset="0%" stop-color="#5F676F"/>
            <stop offset="100%" stop-color="#343A40"/>
        </linearGradient>
    </defs>
    <g fill="none" fill-rule="evenodd">
        <rect width="114" height="40" fill="url(#a)" rx="6"/>
        <g fill="#FFF">
            <text font-family="AppleSDGothicNeo-Bold, Apple SD Gothic Neo" font-size="14" font-weight="bold" letter-spacing="-.25" transform="translate(19 11)">
                <tspan x="27.28" y="14">검사옵션</tspan>
            </text>
            <path fill-rule="nonzero" d="M36.719 18.874c-.145-.091-1.28-.771-1.731-.978l-.56-1.35c.167-.446.484-1.698.534-1.915a.6.6 0 0 0-.16-.558l-.875-.874a.6.6 0 0 0-.558-.16c-.165.037-1.45.359-1.915.532l-1.35-.559c-.198-.431-.858-1.54-.978-1.731a.6.6 0 0 0-.508-.281h-1.236a.6.6 0 0 0-.508.281c-.091.145-.771 1.28-.978 1.731l-1.35.56c-.446-.167-1.698-.484-1.915-.534a.6.6 0 0 0-.558.16l-.874.875a.6.6 0 0 0-.16.558c.037.165.359 1.45.532 1.916l-.559 1.35c-.431.197-1.54.857-1.731.977a.6.6 0 0 0-.281.508v1.236a.6.6 0 0 0 .281.508c.145.091 1.28.771 1.731.978l.56 1.35c-.167.446-.484 1.698-.534 1.915a.6.6 0 0 0 .16.558l.875.874a.6.6 0 0 0 .558.16c.165-.037 1.45-.359 1.915-.532l1.35.559c.198.431.858 1.54.978 1.731a.6.6 0 0 0 .508.281h1.236a.6.6 0 0 0 .508-.281c.091-.145.771-1.28.978-1.731l1.35-.56c.446.167 1.698.484 1.915.534a.6.6 0 0 0 .558-.16l.874-.875a.6.6 0 0 0 .16-.558c-.037-.165-.359-1.45-.532-1.916l.559-1.35c.431-.197 1.54-.857 1.731-.977a.6.6 0 0 0 .281-.508v-1.236a.6.6 0 0 0-.281-.508zM28 23.924A3.928 3.928 0 0 1 24.076 20 3.928 3.928 0 0 1 28 16.076 3.928 3.928 0 0 1 31.924 20 3.928 3.928 0 0 1 28 23.924z"/>
        </g>
    </g>
</svg>
