<svg xmlns="http://www.w3.org/2000/svg" width="50" height="50" viewBox="0 0 50 50">
    <g fill="none" fill-rule="evenodd">
        <path fill="#F3F5F7" d="M0 0h40c5.523 0 10 4.477 10 10v30c0 5.523-4.477 10-10 10H0V0z"/>
        <path fill="#ADB5BD" fill-rule="nonzero" stroke="#F3F5F7" d="M31.577 22.943h-5.605v-5.606a.337.337 0 0 0-.337-.337h-3.356a.337.337 0 0 0-.336.337v5.606h-5.606a.337.337 0 0 0-.337.336v3.356c0 .186.15.337.337.337h5.606v5.605c0 .186.15.337.336.337h3.356c.186 0 .337-.15.337-.337v-5.605h5.605c.186 0 .337-.151.337-.337v-3.356a.337.337 0 0 0-.337-.336z"/>
    </g>
</svg>
