<svg xmlns="http://www.w3.org/2000/svg" width="100" height="34" viewBox="0 0 100 34">
    <g fill="none" fill-rule="evenodd">
        <rect width="100" height="34" fill="#E9ECEF" rx="17"/>
        <path d="M14 10h15v15H14z"/>
        <path fill="#495057" d="M26.144 18.113c.025-.2.044-.4.044-.613a4.87 4.87 0 0 0-.044-.612l1.319-1.032a.315.315 0 0 0 .074-.4l-1.25-2.162c-.075-.138-.243-.188-.38-.138l-1.557.625a4.566 4.566 0 0 0-1.056-.612l-.238-1.657a.305.305 0 0 0-.306-.262h-2.5a.305.305 0 0 0-.306.262l-.238 1.657a4.802 4.802 0 0 0-1.056.612l-1.556-.625a.305.305 0 0 0-.381.138l-1.25 2.162a.308.308 0 0 0 .075.4l1.318 1.031c-.025.2-.043.407-.043.613 0 .206.018.412.043.613l-1.318 1.03a.315.315 0 0 0-.075.4l1.25 2.163c.075.138.243.188.38.138l1.557-.625c.325.25.675.456 1.056.612l.238 1.657c.019.15.15.262.306.262h2.5a.305.305 0 0 0 .306-.262l.238-1.657a4.802 4.802 0 0 0 1.056-.612l1.556.625c.144.056.307 0 .382-.138l1.25-2.162a.315.315 0 0 0-.075-.4l-1.32-1.031zM21.5 19.688a2.19 2.19 0 0 1-2.188-2.188 2.19 2.19 0 0 1 2.188-2.188 2.19 2.19 0 0 1 2.188 2.188 2.19 2.19 0 0 1-2.188 2.188z"/>
        <text fill="#495057" font-family="SpoqaHanSans-Bold, SpoqaHanSans" font-size="14" font-weight="bold" letter-spacing="-.25">
            <tspan x="34.24" y="23">환경설정</tspan>
        </text>
    </g>
</svg>
