<svg xmlns="http://www.w3.org/2000/svg" width="114" height="40" viewBox="0 0 114 40">
    <defs>
        <linearGradient id="a" x1="0%" y1="43.844%" y2="56.156%">
            <stop offset="0%" stop-color="#00BAE8"/>
            <stop offset="100%" stop-color="#0063F2"/>
        </linearGradient>
    </defs>
    <g fill="none" fill-rule="evenodd">
        <rect width="114" height="40" fill="url(#a)" rx="6"/>
        <text fill="#FFF" font-family="AppleSDGothicNeo-Bold, Apple SD Gothic Neo" font-size="14" font-weight="bold" letter-spacing="-.25">
            <tspan x="49.71" y="25">μ•”νΈν™”</tspan>
        </text>
        <path fill="#FFF" fill-rule="nonzero" d="M40.125 17.73H39v-1.496C39 13.348 36.645 11 33.75 11s-5.25 2.348-5.25 5.234v1.495h-1.125a.374.374 0 0 0-.375.374v9.347a1.5 1.5 0 0 0 1.5 1.495H39a1.5 1.5 0 0 0 1.5-1.495v-9.347a.374.374 0 0 0-.375-.374zm-5.252 7.81a.374.374 0 0 1-.373.414H33a.376.376 0 0 1-.373-.415l.237-2.12a1.478 1.478 0 0 1-.614-1.203 1.5 1.5 0 0 1 3 0c0 .483-.23.924-.614 1.202l.237 2.121zm1.877-7.81h-6v-1.496c0-1.65 1.346-2.99 3-2.99s3 1.34 3 2.99v1.495z"/>
    </g>
</svg>
