<svg id="btn_change_user_nor" xmlns="http://www.w3.org/2000/svg" xmlns:xlink="http://www.w3.org/1999/xlink" width="110" height="36" viewBox="0 0 110 36">
  <defs>
    <linearGradient id="linear-gradient" y1="0.5" x2="1" y2="0.5" gradientUnits="objectBoundingBox">
      <stop offset="0" stop-color="#5f676f"/>
      <stop offset="1" stop-color="#343a40"/>
    </linearGradient>
  </defs>
  <rect id="Rectangle_Copy_15" data-name="Rectangle Copy 15" width="110" height="36" rx="18" fill="url(#linear-gradient)"/>
  <text id="닫기_copy_2" data-name="닫기 copy 2" transform="translate(65.5 23)" fill="#fff" font-size="13" font-family="SpoqaHanSans-Regular, SpoqaHanSans" letter-spacing="-0.018em"><tspan x="-29.436" y="0">사용자변경</tspan></text>
  <g id="그룹_1" data-name="그룹 1" transform="translate(1099.5 -2747)">
    <g id="패스_1" data-name="패스 1" transform="translate(-1086 2762)" fill="#fff">
      <path d="M 7.5 10.10660743713379 C 5.620309829711914 10.10659790039063 3.803889989852905 9.834748268127441 2.516510009765625 9.360747337341309 C 1.596590042114258 9.022037506103516 0.5 8.424278259277344 0.5 7.499997615814209 C 0.5 3.640187740325928 3.64018988609314 0.4999978244304657 7.5 0.4999978244304657 C 11.35980987548828 0.4999978244304657 14.5 3.640187740325928 14.5 7.499997615814209 C 14.5 8.424278259277344 13.40340995788574 9.022037506103516 12.48348999023438 9.360747337341309 C 11.19610977172852 9.834748268127441 9.379690170288086 10.10659790039063 7.5 10.10660743713379 Z" stroke="none"/>
      <path d="M 7.5 0.9999980926513672 C 3.915889739990234 0.9999980926513672 1 3.915887832641602 1 7.499997615814209 C 1 8.194578170776367 2.181349754333496 8.704527854919434 2.68925952911377 8.891537666320801 C 3.923500061035156 9.345968246459961 5.676939964294434 9.606597900390625 7.5 9.606597900390625 C 9.323060035705566 9.606597900390625 11.07649993896484 9.345968246459961 12.31073951721191 8.891537666320801 C 12.8186502456665 8.704527854919434 14 8.194578170776367 14 7.499997615814209 C 14 3.915887832641602 11.08411026000977 0.9999980926513672 7.5 0.9999980926513672 M 7.5 -1.9073486328125e-06 C 11.64213943481445 -1.9073486328125e-06 15 3.357868194580078 15 7.499997615814209 C 15 9.571067810058594 11.25 10.60660266876221 7.5 10.60660266876221 C 3.75 10.60660266876221 0 9.571067810058594 0 7.499997615814209 C 0 3.357868194580078 3.35785961151123 -1.9073486328125e-06 7.5 -1.9073486328125e-06 Z" stroke="none" fill="#596068"/>
    </g>
    <circle id="타원_1" data-name="타원 1" cx="4" cy="4" r="4" transform="translate(-1082.5 2757)" fill="#fff" stroke="#596068" stroke-width="2"/>
  </g>
</svg>
